<svg width="168" height="32" viewBox="0 0 168 32" fill="none" xmlns="http://www.w3.org/2000/svg">
<path d="M36.6512 25.825C36.7025 25.825 36.7282 25.875 36.7025 25.9L34.3927 31.925C34.3927 31.95 34.3671 31.975 34.3414 31.975H34.1617C34.1361 31.975 34.1104 31.95 34.1104 31.925L32.1599 27.15L30.2094 31.925C30.2094 31.95 30.1837 31.975 30.1581 31.975H29.9784C29.9527 31.975 29.9271 31.95 29.9271 31.925L27.6173 25.9C27.5916 25.85 27.6429 25.825 27.6686 25.825H28.3359C28.3615 25.825 28.3872 25.85 28.3872 25.875L30.0811 30.45L32.0059 25.775C32.0059 25.75 32.0316 25.725 32.0572 25.725H32.2369C32.2626 25.725 32.2882 25.75 32.2882 25.775L34.2131 30.45L35.9069 25.875C35.9069 25.85 35.9326 25.825 35.9583 25.825H36.6512Z" fill="#312F31"/>
<path d="M39.8336 27.3251C41.1425 27.3001 42.2717 28.3751 42.2461 29.6501C42.2717 30.9001 41.1425 32.0001 39.8336 31.9751C38.5247 32.0001 37.4211 30.9001 37.4468 29.6501C37.4211 28.3751 38.5247 27.3001 39.8336 27.3251ZM39.8336 27.9751C38.884 27.9751 38.1654 28.7001 38.1654 29.6751C38.1654 30.6001 38.884 31.3501 39.8079 31.3501C40.7319 31.3501 41.4761 30.6251 41.4761 29.6751C41.5018 28.7001 40.7832 27.9751 39.8336 27.9751Z" fill="#312F31"/>
<path d="M46.3267 27.9751C46.3267 28.0001 46.3011 28.0501 46.2497 28.0501C46.1471 28.0501 45.9417 28.0501 45.7108 28.0751C45.0948 28.2001 44.6072 28.6501 44.6072 29.3501V31.8251C44.6072 31.8501 44.5815 31.9001 44.5302 31.9001H43.9399C43.9142 31.9001 43.8629 31.8751 43.8629 31.8251V27.4751C43.8629 27.4501 43.8886 27.4001 43.9399 27.4001H44.4789C44.5045 27.4001 44.5559 27.4251 44.5559 27.4751V28.0501C44.7868 27.7501 45.0948 27.5501 45.4541 27.4501C45.6081 27.4001 45.9417 27.3751 46.2497 27.4001C46.2754 27.4001 46.3011 27.4251 46.3011 27.4751V27.9751H46.3267Z" fill="#312F31"/>
<path d="M47.7383 25H48.3286C48.3542 25 48.4056 25.025 48.4056 25.075V31.825C48.4056 31.85 48.3799 31.9 48.3286 31.9H47.7383C47.7126 31.9 47.6613 31.875 47.6613 31.825V25.075C47.687 25.025 47.7126 25 47.7383 25ZM51.3827 31.9H50.6127C50.5871 31.9 50.5614 31.9 50.5614 31.875L48.4826 29.375L50.3817 27.45C50.3817 27.425 50.4074 27.425 50.4331 27.425H51.203C51.2543 27.425 51.28 27.5 51.2543 27.525L49.3808 29.375L51.4597 31.775C51.4853 31.825 51.434 31.9 51.3827 31.9Z" fill="#312F31"/>
<path d="M52.8199 30.7001C52.8456 30.6751 52.8969 30.6751 52.9226 30.7001C53.3332 31.1001 53.6925 31.35 54.2058 31.35C54.6934 31.35 55.0784 31.1 55.0784 30.725C55.0784 30.375 54.8474 30.225 54.2828 30L53.8465 29.825C53.0765 29.525 52.7172 29.175 52.7172 28.575C52.7172 27.8 53.3845 27.325 54.2571 27.325C54.8731 27.325 55.3864 27.575 55.7457 27.975C55.7713 28 55.7713 28.05 55.7457 28.075L55.3864 28.425C55.3607 28.45 55.3094 28.45 55.2837 28.425C54.9757 28.15 54.5908 27.975 54.2058 27.975C53.7438 27.975 53.4358 28.175 53.4358 28.525C53.4358 28.8 53.6155 28.95 54.1801 29.175L54.6164 29.35C55.4634 29.7 55.8227 30.05 55.8227 30.675C55.8227 31.1 55.6687 31.425 55.3607 31.65C55.0527 31.875 54.6677 32 54.2314 32C53.4872 32 52.8712 31.675 52.4863 31.175C52.4606 31.15 52.4606 31.125 52.4863 31.1L52.8199 30.7001Z" fill="#312F31"/>
<path d="M57.4395 30.825C57.7732 30.825 58.0298 31.075 58.0298 31.4C58.0298 31.7251 57.7732 31.9751 57.4395 31.9751C57.1059 31.9751 56.8492 31.7251 56.8492 31.4C56.8492 31.075 57.1059 30.825 57.4395 30.825Z" fill="#312F31"/>
<path d="M73.8392 27.3251C75.1481 27.3001 76.2773 28.3751 76.2517 29.6501C76.2773 30.9001 75.1481 32.0001 73.8392 31.9751C72.5303 32.0001 71.4267 30.9001 71.4524 29.6501C71.401 28.3751 72.5303 27.3001 73.8392 27.3251ZM73.8392 27.9751C72.8896 27.9751 72.171 28.7001 72.171 29.6751C72.171 30.6001 72.8896 31.3501 73.8135 31.3501C74.7375 31.3501 75.4817 30.6251 75.4817 29.6751C75.4817 28.7001 74.7631 27.9751 73.8392 27.9751Z" fill="#312F31"/>
<path d="M85.9273 25.075V31.825C85.9273 31.85 85.9016 31.9 85.8503 31.9H85.2857C85.26 31.9 85.2087 31.875 85.2087 31.825V31.175C84.8494 31.675 84.1821 31.975 83.4635 31.975C82.1803 31.975 81.205 30.95 81.205 29.65C81.205 28.35 82.1803 27.3 83.4635 27.3C84.1564 27.3 84.798 27.575 85.1573 28.05V25.05C85.1573 25.025 85.183 24.975 85.2344 24.975H85.8246C85.9016 25 85.9273 25.025 85.9273 25.075ZM83.6175 27.975C82.6935 27.975 81.9749 28.7 81.9749 29.65C81.9749 30.625 82.6679 31.35 83.6175 31.35C84.4387 31.35 85.2087 30.8 85.2087 29.675C85.2344 28.525 84.4387 27.975 83.6175 27.975Z" fill="#312F31"/>
<path d="M92.523 30.825C92.8567 30.825 93.1133 31.075 93.1133 31.4C93.1133 31.7251 92.8567 31.9751 92.523 31.9751C92.1894 31.9751 91.9328 31.7251 91.9328 31.4C91.9328 31.075 92.1894 30.825 92.523 30.825Z" fill="#312F31"/>
<path d="M108.923 27.3251C110.232 27.3001 111.361 28.3751 111.335 29.6501C111.361 30.9001 110.232 32.0001 108.923 31.9751C107.614 32.0001 106.51 30.9001 106.536 29.6501C106.485 28.3751 107.614 27.3001 108.923 27.3251ZM108.923 27.9751C107.973 27.9751 107.255 28.7001 107.255 29.6751C107.255 30.6001 107.973 31.3501 108.897 31.3501C109.821 31.3501 110.565 30.6251 110.565 29.6751C110.565 28.7001 109.847 27.9751 108.923 27.9751Z" fill="#312F31"/>
<path d="M116.699 31.9H116.109C116.083 31.9 116.032 31.8751 116.032 31.8251V29.175C116.032 28.475 115.596 27.975 114.903 27.975C114.184 27.975 113.696 28.475 113.696 29.175V31.8251C113.696 31.8501 113.671 31.9 113.619 31.9H113.029C113.003 31.9 112.952 31.8751 112.952 31.8251V27.475C112.952 27.45 112.978 27.4 113.029 27.4H113.568C113.594 27.4 113.645 27.425 113.645 27.475V27.9C113.979 27.525 114.492 27.325 115.057 27.325C116.109 27.325 116.75 28.025 116.75 29.075V31.8251C116.75 31.8501 116.725 31.9 116.699 31.9Z" fill="#312F31"/>
<path d="M123.038 25.075V31.825C123.038 31.85 123.013 31.9 122.961 31.9H122.422C122.397 31.9 122.345 31.875 122.345 31.825V31.175C121.986 31.675 121.319 31.975 120.6 31.975C119.317 31.975 118.342 30.95 118.342 29.65C118.342 28.35 119.317 27.3 120.6 27.3C121.293 27.3 121.935 27.575 122.294 28.05V25.05C122.294 25.025 122.32 24.975 122.371 24.975H122.961C123.013 25 123.038 25.025 123.038 25.075ZM120.728 27.975C119.805 27.975 119.086 28.7 119.086 29.65C119.086 30.625 119.779 31.35 120.728 31.35C121.55 31.35 122.32 30.8 122.32 29.675C122.32 28.525 121.55 27.975 120.728 27.975Z" fill="#312F31"/>
<path d="M125.425 29.875C125.502 30.75 126.195 31.35 127.119 31.35C127.607 31.35 128.069 31.175 128.479 30.8C128.505 30.775 128.556 30.775 128.582 30.8L128.915 31.175C128.941 31.2 128.941 31.25 128.915 31.275C128.428 31.725 127.838 32 127.119 32C125.759 32 124.681 30.975 124.681 29.675C124.681 28.375 125.707 27.325 127.016 27.325C128.197 27.325 129.095 28.15 129.095 29.35C129.095 29.525 129.069 29.7 129.044 29.875H125.425ZM128.377 29.25C128.377 28.45 127.786 27.975 127.016 27.975C126.246 27.975 125.63 28.5 125.476 29.25H128.377Z" fill="#312F31"/>
<path d="M134.536 30.7001C134.562 30.6751 134.613 30.6751 134.639 30.7001C135.049 31.1001 135.409 31.35 135.922 31.35C136.41 31.35 136.795 31.1 136.795 30.725C136.795 30.375 136.564 30.225 135.999 30L135.563 29.825C134.793 29.525 134.433 29.175 134.433 28.575C134.433 27.8 135.101 27.325 135.973 27.325C136.589 27.325 137.103 27.575 137.462 27.975C137.488 28 137.488 28.05 137.462 28.075L137.103 28.425C137.077 28.45 137.026 28.45 137 28.425C136.692 28.15 136.307 27.975 135.922 27.975C135.46 27.975 135.152 28.175 135.152 28.525C135.152 28.8 135.332 28.95 135.896 29.175L136.333 29.35C137.18 29.7 137.539 30.05 137.539 30.675C137.539 31.1 137.385 31.425 137.077 31.65C136.769 31.875 136.384 32 135.948 32C135.203 32 134.587 31.675 134.202 31.175C134.177 31.15 134.177 31.125 134.202 31.1L134.536 30.7001Z" fill="#312F31"/>
<path d="M139.156 30.825C139.489 30.825 139.746 31.075 139.746 31.4C139.746 31.7251 139.489 31.9751 139.156 31.9751C138.822 31.9751 138.565 31.7251 138.565 31.4C138.565 31.075 138.822 30.825 139.156 30.825Z" fill="#312F31"/>
<path d="M70.5798 25.825C70.6311 25.825 70.6568 25.875 70.6311 25.9L68.3213 31.925C68.3213 31.95 68.2957 31.975 68.27 31.975H68.0903C68.0647 31.975 68.039 31.95 68.039 31.925L66.0885 27.15L64.138 31.925C64.138 31.95 64.1123 31.975 64.0867 31.975H63.907C63.8814 31.975 63.8557 31.95 63.8557 31.925L61.5459 25.9C61.5202 25.85 61.5715 25.825 61.5972 25.825H62.2645C62.2901 25.825 62.3158 25.85 62.3158 25.875L64.0097 30.45L65.9345 25.775C65.9345 25.75 65.9602 25.725 65.9859 25.725H66.1655C66.1912 25.725 66.2168 25.75 66.2168 25.775L68.1417 30.45L69.8355 25.875C69.8355 25.85 69.8612 25.825 69.8869 25.825H70.5798Z" fill="#312F31"/>
<path d="M80.3324 27.9751C80.3324 28.0001 80.3067 28.0501 80.2554 28.0501C80.1527 28.0501 79.9474 28.0501 79.7164 28.0751C79.1005 28.2001 78.6128 28.6501 78.6128 29.3501V31.8251C78.6128 31.8501 78.5872 31.9001 78.5359 31.9001H77.9456C77.9199 31.9001 77.8686 31.8751 77.8686 31.8251V27.4751C77.8686 27.4501 77.8942 27.4001 77.9456 27.4001H78.4845C78.5102 27.4001 78.5615 27.4251 78.5615 27.4751V28.0501C78.7925 27.7501 79.1005 27.5501 79.4598 27.4501C79.6138 27.4001 79.9474 27.3751 80.2554 27.4001C80.2811 27.4001 80.3067 27.4251 80.3067 27.4751V27.9751H80.3324Z" fill="#312F31"/>
<path d="M87.8521 30.7001C87.8777 30.6751 87.9291 30.6751 87.9547 30.7001C88.3654 31.1001 88.7247 31.35 89.238 31.35C89.7256 31.35 90.1106 31.1 90.1106 30.725C90.1106 30.375 89.8796 30.225 89.315 30L88.8787 29.825C88.1087 29.525 87.7494 29.175 87.7494 28.575C87.7494 27.8 88.4167 27.325 89.2893 27.325C89.9052 27.325 90.4185 27.575 90.7778 27.975C90.8035 28 90.8035 28.05 90.7778 28.075L90.4185 28.425C90.3929 28.45 90.3415 28.45 90.3159 28.425C90.0079 28.15 89.6229 27.975 89.238 27.975C88.776 27.975 88.468 28.175 88.468 28.525C88.468 28.8 88.6477 28.95 89.2123 29.175L89.6486 29.35C90.4955 29.7 90.8548 30.05 90.8548 30.675C90.8548 31.1 90.7009 31.425 90.3929 31.65C90.0849 31.875 89.6999 32 89.2636 32C88.5194 32 87.9034 31.675 87.5184 31.175C87.4928 31.15 87.4928 31.125 87.5184 31.1L87.8521 30.7001Z" fill="#312F31"/>
<path d="M105.663 25.825C105.715 25.825 105.74 25.875 105.715 25.9L103.405 31.925C103.405 31.95 103.379 31.975 103.354 31.975H103.174C103.148 31.975 103.123 31.95 103.123 31.925L101.172 27.15L99.2215 31.925C99.2215 31.95 99.1959 31.975 99.1702 31.975H98.9906C98.9649 31.975 98.9392 31.95 98.9392 31.925L96.6294 25.9C96.6038 25.85 96.6551 25.825 96.6807 25.825H97.348C97.3737 25.825 97.3994 25.85 97.3994 25.875L99.0932 30.45L101.018 25.775C101.018 25.75 101.044 25.725 101.069 25.725H101.249C101.275 25.725 101.3 25.75 101.3 25.775L103.225 30.45L104.919 25.875C104.919 25.85 104.945 25.825 104.97 25.825H105.663Z" fill="#312F31"/>
<path d="M133.176 27.9751C133.176 28.0001 133.15 28.0501 133.099 28.0501C132.996 28.0501 132.791 28.0501 132.56 28.0751C131.944 28.2001 131.456 28.6501 131.456 29.3501V31.8251C131.456 31.8501 131.431 31.9001 131.379 31.9001H130.789C130.763 31.9001 130.712 31.8751 130.712 31.8251V27.4751C130.712 27.4501 130.738 27.4001 130.789 27.4001H131.328C131.354 27.4001 131.405 27.4251 131.405 27.4751V28.0501C131.636 27.7501 131.944 27.5501 132.303 27.4501C132.457 27.4001 132.791 27.3751 133.099 27.4001C133.124 27.4001 133.15 27.4251 133.15 27.4751V27.9751H133.176Z" fill="#312F31"/>
<path d="M9.88258 0.025C13.2703 0.025 16.1704 1.575 17.8643 4.2C17.9669 4.375 17.9156 4.575 17.7616 4.675L15.4775 6.25C15.2978 6.375 15.0668 6.325 14.9642 6.175C13.6809 4.35 11.9614 3.45 9.88258 3.45C6.44353 3.45 3.90273 5.95 3.90273 9.4C3.90273 12.85 6.41786 15.3 9.88258 15.3C11.9871 15.3 13.6809 14.4 14.9642 12.575C15.0925 12.4 15.3235 12.375 15.4775 12.5L17.736 14.05C17.8899 14.15 17.9413 14.375 17.8386 14.525C16.1961 17.15 13.2703 18.725 9.83126 18.725C4.44169 18.825 -0.100952 14.525 0.00170668 9.375C-0.0752872 4.2 4.49301 -0.075 9.88258 0.025ZM67.7563 0.025C71.144 0.025 74.0441 1.575 75.738 4.2C75.8407 4.375 75.7893 4.575 75.6353 4.675L73.3769 6.225C73.1972 6.35 72.9662 6.3 72.8636 6.15C71.5803 4.325 69.8608 3.425 67.782 3.425C64.3429 3.425 61.8021 5.925 61.8021 9.375C61.8021 12.825 64.3172 15.275 67.782 15.275C69.8865 15.275 71.5803 14.375 72.8636 12.55C72.9919 12.375 73.2229 12.35 73.3769 12.475L75.6353 14.025C75.7893 14.125 75.8407 14.35 75.738 14.5C74.0955 17.125 71.1697 18.7 67.7306 18.7C62.3154 18.8 57.7728 14.525 57.9011 9.35C57.8241 4.2 62.3924 -0.075 67.7563 0.025ZM91.0084 18.25L83.1807 9V18C83.1807 18.2 83.0011 18.375 82.7958 18.375H79.7673C79.562 18.375 79.3824 18.2 79.3824 18V0.725C79.3824 0.525 79.562 0.35 79.7673 0.35H82.7958C83.0011 0.35 83.1807 0.525 83.1807 0.725V8.725L90.1359 0.5C90.2129 0.425 90.3155 0.375 90.4182 0.375H93.9599C94.2679 0.375 94.4475 0.725 94.2422 0.975L87.6464 8.875L95.1661 17.8C95.3714 18.05 95.1918 18.4 94.8838 18.4H91.2908C91.1881 18.375 91.0854 18.325 91.0084 18.25ZM128.864 0.35H131.892C132.098 0.35 132.277 0.525 132.277 0.725V18C132.277 18.2 132.098 18.375 131.892 18.375H128.864C128.658 18.375 128.479 18.2 128.479 18V0.725C128.479 0.525 128.633 0.35 128.864 0.35ZM141.67 3.7H136.127C135.922 3.7 135.742 3.525 135.742 3.325V0.725C135.742 0.525 135.922 0.35 136.127 0.35H151.012C151.218 0.35 151.397 0.525 151.397 0.725V3.325C151.397 3.525 151.218 3.7 151.012 3.7H145.443V18C145.443 18.2 145.263 18.375 145.058 18.375H142.03C141.824 18.375 141.645 18.2 141.645 18V3.7H141.67ZM156.017 13.025C156.171 12.9 156.402 12.925 156.53 13.1C157.685 14.55 158.943 15.425 160.842 15.425C162.484 15.425 163.485 14.65 163.485 13.425C163.485 12.35 162.895 11.975 161.124 11.175L159.122 10.3C156.299 9.075 154.631 7.525 154.631 5.1C154.631 2.025 157.275 0 160.765 0C163.46 0 165.513 1.225 166.719 3.125C166.822 3.275 166.77 3.5 166.642 3.6L164.64 5.1C164.486 5.225 164.23 5.2 164.101 5.025C163.177 3.825 162.074 3.25 160.791 3.25C159.482 3.25 158.481 3.875 158.481 5C158.481 5.95 159.071 6.4 160.637 7.075L162.741 7.975C165.846 9.325 167.309 10.825 167.309 13.25C167.309 16.55 164.538 18.65 160.842 18.65C157.813 18.65 155.324 17.225 153.861 14.95C153.758 14.8 153.81 14.575 153.964 14.475L156.017 13.025ZM124.424 0.35H121.036C120.882 0.35 120.728 0.45 120.677 0.575L116.647 10.925L112.028 0.575C111.976 0.45 111.822 0.35 111.694 0.35H110.642C110.488 0.35 110.36 0.425 110.308 0.575L105.689 11L101.659 0.6C101.608 0.45 101.454 0.375 101.3 0.375H97.9122C97.6556 0.375 97.4759 0.625 97.5529 0.875L104.534 18.175C104.585 18.325 104.739 18.4 104.893 18.4H105.92C106.074 18.4 106.202 18.325 106.253 18.175L111.181 7.425L116.083 18.175C116.134 18.3 116.288 18.4 116.416 18.4H117.443C117.597 18.4 117.725 18.3 117.802 18.175L124.783 0.875C124.86 0.625 124.68 0.35 124.424 0.35ZM57.1055 17.9L54.231 11.775L52.6398 8.4L47.1476 11.025L50.5097 3.875L48.7645 0.225C48.6362 -0.05 48.2255 -0.05 48.0715 0.225L39.7305 17.95C39.5766 18.275 39.9102 18.575 40.2438 18.425L50.5867 13.5L56.5152 18.325C56.8232 18.6 57.2595 18.25 57.1055 17.9ZM36.9588 17.85L32.5701 12C34.5206 10.85 35.8039 8.725 35.7012 6.3C35.5472 2.95 32.5958 0.35 29.1311 0.35H21.6883V18.05C21.6883 18.25 21.8423 18.4 22.0476 18.4H25.1017C25.307 18.4 25.461 18.25 25.461 18.05V3.6H29.1567C30.7993 3.6 32.2621 4.8 32.3648 6.425C32.4931 8.175 31.0559 9.65 29.2594 9.65H26.5133L32.8781 18.15C33.0064 18.3 33.1861 18.4 33.3914 18.4H36.6508C36.9588 18.425 37.1384 18.1 36.9588 17.85Z" fill="#312F31"/>
</svg>
