<svg width="44" height="44" viewBox="0 0 44 44" fill="none" xmlns="http://www.w3.org/2000/svg">
<path fill-rule="evenodd" clip-rule="evenodd" d="M10.7708 15.8125H6.41659C5.40459 15.8125 4.58325 16.6338 4.58325 17.6458V26.3542C4.58325 27.3662 5.40459 28.1875 6.41659 28.1875H10.7708L18.0656 34.3677C19.2573 35.3778 21.0833 34.5308 21.0833 32.9688V11.0312C21.0833 9.46917 19.2554 8.62217 18.0656 9.63233L10.7708 15.8125Z" stroke="#312F31" stroke-width="2.75" stroke-linecap="round" stroke-linejoin="round"/>
<path d="M28.4846 29.293C30.615 27.9693 32.0835 25.2157 32.0835 22.0092C32.0835 18.8027 30.615 16.0472 28.4846 14.707" stroke="#312F31" stroke-width="2.75" stroke-linecap="round" stroke-linejoin="round"/>
<path d="M33.9259 34.9525C37.2406 32.1017 39.4167 27.3717 39.4167 22.0055C39.4167 16.632 37.2369 11.8983 33.9167 9.04933" stroke="#312F31" stroke-width="2.75" stroke-linecap="round" stroke-linejoin="round"/>
</svg>
