<?xml version="1.0" encoding="UTF-8"?>
<svg id="Layer_2" data-name="Layer 2" xmlns="http://www.w3.org/2000/svg" viewBox="0 0 501 501">
  <defs>
    <style>
      .cls-1 {
        fill: #00a994;
      }

      .cls-2 {
        opacity: .2;
      }

      .cls-2, .cls-3 {
        fill: #312f31;
      }

      .cls-4 {
        fill: #d7586c;
      }

      .cls-5 {
        fill: #fff;
        stroke: #000;
        stroke-miterlimit: 10;
      }
    </style>
  </defs>
  <g id="Layer_1-2" data-name="Layer 1">
    <g>
      <rect class="cls-5" x=".5" y=".5" width="500" height="500" rx="250" ry="250"/>
      <path class="cls-3" d="M396.1,399.98l-48.36-105.39-26.61-58-92.07,45.33,56.44-122.99-29.18-63.59c-2.25-4.9-9.22-4.9-11.47,0l-102.49,223.36h0l-37.47,81.67c-2.47,5.38,3.17,10.89,8.49,8.3l173.66-84.53,99.27,83.3c5.15,4.32,12.59-1.35,9.79-7.46Z"/>
      <g>
        <path class="cls-3" d="M94.92,135.07s.55-.41,1.6-1.13c-.56.27-1.09.64-1.6,1.13Z"/>
        <path class="cls-4" d="M264.88,115.33l-112.28,127.24c-9.18-44.2-43.24-121.48-57.68-107.5,0,0,81.41-60.55,169.96-19.74Z"/>
        <path class="cls-2" d="M134.97,114.05c-20.02,7.78-33.92,16.77-38.45,19.89,2.09-1.02,4.51-.51,7.13,1.24.5.33,1.01.71,1.53,1.14.01.01.02.02.04.03.24.2.49.41.74.63.04.03.07.07.11.1.22.2.45.41.68.63.05.04.09.09.14.13.22.21.44.43.66.66.05.05.1.1.15.15.22.23.44.46.66.7.05.05.1.11.15.16.22.24.45.49.67.75.05.05.1.11.14.17.23.26.46.53.69.81.04.05.09.11.13.16.23.28.47.57.71.87.04.05.08.1.12.15.24.31.49.62.73.94.03.04.07.09.1.13.25.34.51.68.77,1.03.02.03.05.06.07.09.27.37.54.74.81,1.12.01.02.02.04.04.05,14.94,21.19,32.22,65.06,38.76,95.02,1.02-.34,2.02-.73,2.98-1.18l10.78-12.22c1.19-4.36,1.13-9.88-.73-16.86-6.19-23.23-22.49-45.18-36.02-60.32,9.26-9.81,11.38-24.25,5.73-36.18Z"/>
        <circle class="cls-1" cx="103.05" cy="123.04" r="28.4"/>
        <path class="cls-1" d="M277.18,115.01l-32.21-38.1c-4.04-4.78-11.85-1.99-11.94,4.27l-.8,51.89-60.17-4.1c-4.36-.3-7.85,3.55-7.14,7.86l9.95,60.06-55.23,7.88c-5.64.8-7.83,7.8-3.65,11.67,11.1,10.28,28.13,26.04,35.95,33.16,2.57,2.35,6.39,2.68,9.34.83,11.6-7.28,41.47-27.97,73.5-65.69,29.33-34.55,39.91-53.53,43.56-61.55,1.23-2.71.77-5.9-1.15-8.17Z"/>
      </g>
    </g>
  </g>
</svg>

