<svg width="168" height="168" viewBox="0 0 168 168" fill="none" xmlns="http://www.w3.org/2000/svg">
<path d="M140.82 116.951C142.494 117.06 144.039 116.938 145.448 116.679C147.368 116.325 148.709 118.571 147.49 120.096C135.803 134.764 115.009 139.577 97.7812 130.565C97.543 130.442 97.3183 130.306 97.0869 130.177L99.0336 119.626L113.511 114.678C124.245 109.307 133.176 116.468 140.82 116.951Z" fill="#D4D4D4"/>
<path d="M101.279 92.1614C94.7178 110.165 77.4493 123.023 57.1791 123.023C56.0288 123.023 54.8853 122.982 53.7554 122.9C57.4105 141.183 73.5491 154.966 92.9072 154.966C113.933 154.966 131.154 138.712 132.712 118.081C118.725 114.657 107.201 104.978 101.279 92.1682V92.1614Z" fill="#DEDEDE"/>
<path d="M82.7861 50.5591C53.7557 50.5591 35.1191 74.0965 35.1191 103.127C35.1191 107.388 35.6296 111.533 36.5894 115.501C37.4946 119.34 39.489 124.05 41.6331 125.024C47.5277 127.692 50.2912 123.023 57.1863 123.023C77.4565 123.023 94.7249 110.165 101.287 92.1613C107.27 105.108 118.977 114.862 133.162 118.19C134.585 113.418 135.354 108.361 135.354 103.127C135.354 74.0965 111.816 50.5591 82.7861 50.5591Z" fill="#B7B7B7"/>
<path d="M30.8174 122.138C29.1838 122.505 27.6318 122.635 26.2025 122.594C24.2489 122.546 23.2756 124.976 24.7186 126.29C38.5565 138.944 59.8478 140.441 75.4554 128.836C75.6732 128.679 75.8706 128.509 76.0816 128.346C76.0816 128.346 68.0157 131.497 65.5721 125.303C63.1285 119.109 55.8046 116.134 55.8046 116.134C44.3626 112.507 38.2843 120.463 30.8174 122.145V122.138Z" fill="#DEDEDE"/>
<path d="M97.6928 124.684L81.7924 124.704C79.7164 124.704 78.9404 121.981 80.7102 120.892L93.4386 113.044C94.5209 112.377 95.9503 112.84 96.4267 114.024L99.5986 121.859C100.15 123.213 99.1494 124.69 97.6928 124.69V124.684Z" fill="#303030"/>
<path d="M109.631 124.684L123.394 124.704C125.3 124.704 126.185 122.342 124.749 121.09L115.825 113.337C114.872 112.506 113.402 112.724 112.728 113.8L107.889 121.532C107.031 122.9 108.018 124.684 109.631 124.684Z" fill="#303030"/>
<path d="M43.5454 18.8606C43.5454 18.8606 43.9606 18.8878 44.7229 18.9559C44.3622 18.8674 43.9742 18.8265 43.5454 18.8606Z" fill="#312F31"/>
<path d="M121.577 67.671L70.4046 88.5811L31.1846 102.984C31.0077 106.687 35.6294 106.537 35.8812 109.872C35.4456 111.69 36.3305 114.331 36.3305 114.331C47.7929 112.438 72.2832 107.476 97.9987 99.1245C99.0606 97.0485 100.701 93.7405 101.28 92.1613C101.804 93.2981 103.07 95.517 104.002 97.1098C113.606 93.7813 123.217 89.9288 132.189 85.4976C129.697 79.2287 125.852 72.4697 121.584 67.671H121.577Z" fill="#A6A6A6"/>
<path d="M124.851 66.2894L33.7919 104.835C40.1085 79.3037 41.6944 30.1121 30.5859 33.8149C30.5859 33.8149 88.6194 22.5295 124.851 66.2894Z" fill="#A3A3A3"/>
<path d="M56.9276 32.8686C44.451 31.9089 34.8809 33.1341 31.7158 33.6242C33.0703 33.6174 34.2139 34.4886 35.1532 36.0746C35.3301 36.3741 35.5071 36.7076 35.6705 37.0547C35.6705 37.0615 35.6773 37.0752 35.6841 37.082C35.7589 37.2521 35.8406 37.4223 35.9155 37.5993C35.9291 37.6265 35.9359 37.6537 35.9495 37.6809C36.0176 37.8443 36.0857 38.0077 36.147 38.1778C36.1606 38.2119 36.1742 38.2459 36.1878 38.2799C36.2491 38.4501 36.3103 38.6135 36.3715 38.7904C36.3852 38.8313 36.3988 38.8653 36.4124 38.9061C36.4736 39.0831 36.5281 39.2601 36.5825 39.4439C36.5962 39.4847 36.6098 39.5255 36.6166 39.5664C36.6711 39.7502 36.7255 39.9408 36.78 40.1313C36.7936 40.1722 36.8004 40.213 36.814 40.2539C36.8684 40.4512 36.9229 40.6486 36.9705 40.8528C36.9773 40.8937 36.991 40.9345 36.9978 40.9686C37.0522 41.1796 37.0999 41.3906 37.1475 41.6016C37.1543 41.6356 37.1611 41.6764 37.1747 41.7105C37.2224 41.9351 37.2768 42.1597 37.3245 42.3911C37.3245 42.4252 37.3381 42.4524 37.3449 42.4864C37.3925 42.7247 37.4402 42.9697 37.4878 43.2216C37.4878 43.242 37.4947 43.2692 37.5015 43.2896C37.5491 43.5483 37.5967 43.8137 37.6444 44.086C37.6444 44.0996 37.6444 44.1132 37.6444 44.12C40.1492 59.0198 38.1753 86.4234 34.0573 103.808C34.6835 103.882 35.3029 103.93 35.9155 103.944L44.662 100.241C46.3841 98.2465 47.7455 95.3333 48.5283 91.2016C51.1352 77.4386 48.0994 61.7969 44.8118 50.4366C52.1494 47.6187 56.9004 40.567 56.9413 32.8754L56.9276 32.8686Z" fill="#969696"/>
<path d="M37.8888 46.0939C47.0274 46.0939 54.4357 38.6856 54.4357 29.547C54.4357 20.4083 47.0274 13 37.8888 13C28.7501 13 21.3418 20.4083 21.3418 29.547C21.3418 38.6856 28.7501 46.0939 37.8888 46.0939Z" fill="#6E6E6E"/>
<path d="M131.392 69.2161L124.075 41.0774C123.156 37.5516 118.35 37.0479 116.724 40.3083L103.219 67.3715L72.637 50.0486C70.4248 48.7962 67.6137 49.9329 66.9058 52.3765L56.9885 86.437L25.9842 76.649C22.8191 75.6484 19.9058 78.7727 21.1242 81.8629C24.3642 90.0649 29.3398 102.63 31.6473 108.348C32.4096 110.226 34.3291 111.363 36.3439 111.138C44.2736 110.24 65.1837 106.898 91.5186 95.1563C115.641 84.4018 125.981 77.0914 129.922 73.797C131.256 72.6807 131.814 70.8974 131.378 69.2161H131.392Z" fill="#6E6E6E"/>
</svg>
