<svg width="168" height="168" viewBox="0 0 168 168" fill="none" xmlns="http://www.w3.org/2000/svg">
<path d="M138.452 113.933C139.983 113.252 141.303 112.429 142.427 111.544C143.965 110.339 146.191 111.707 145.823 113.627C142.27 132.039 126.077 145.945 106.63 145.945C106.365 145.945 106.099 145.931 105.834 145.924L102.669 135.673L113.199 124.579C120.216 114.838 131.454 117.044 138.452 113.933Z" fill="#E6C5AB"/>
<path d="M101.641 98.7949C95.0796 116.799 77.8111 129.656 57.5409 129.656C56.3906 129.656 55.2471 129.615 54.1172 129.534C57.7724 147.816 73.9109 161.6 93.269 161.6C114.295 161.6 131.516 145.346 133.074 124.715C119.087 121.291 107.563 111.612 101.641 98.8017V98.7949Z" fill="#ECD3BF"/>
<path d="M83.1405 57.1927C54.1101 57.1927 30.5728 80.7301 30.5728 109.761C30.5728 114.021 31.0833 118.167 32.043 122.135C39.3806 126.893 48.1339 129.656 57.5339 129.656C77.8041 129.656 95.0726 116.799 101.634 98.795C107.617 111.741 119.325 121.495 133.51 124.824C134.932 120.052 135.701 114.995 135.701 109.761C135.701 80.7301 112.164 57.1927 83.1337 57.1927H83.1405Z" fill="#FF9C81"/>
<path d="M31.4373 116.669C29.9058 115.989 28.5853 115.165 27.4622 114.28C25.9239 113.075 23.6982 114.444 24.0657 116.363C27.6188 134.775 43.8118 148.681 63.2584 148.681C63.5239 148.681 63.7893 148.667 64.0548 148.661L67.2199 138.41L56.69 127.315C49.6723 117.575 38.4346 119.78 31.4373 116.669Z" fill="#ECD3BF"/>
<path d="M120.951 73.2429C94.9705 83.9634 65.8993 88.8573 35.9568 86.5635C32.6012 93.3838 29.7832 101.028 30.6408 112.49C54.1782 114.689 77.6476 114.035 97.8089 106.82C98.7278 105.05 100.947 100.68 101.641 98.7883C102.322 100.265 104.248 103.567 105.078 104.955C115.962 102.437 124.287 99.183 133.646 95.1263C131.134 87.639 126.315 78.7903 120.951 73.2361V73.2429Z" fill="#E37B62"/>
<path d="M84.2093 114.593L79.22 127.594C78.4985 129.479 79.8871 131.508 81.9087 131.508H91.8872C93.9088 131.508 95.2973 129.479 94.5758 127.594L89.5866 114.593C88.6404 112.129 85.1554 112.129 84.2093 114.593Z" fill="#312F31"/>
<path d="M109.652 115.056L105.092 127.642C104.411 129.52 105.8 131.501 107.801 131.501H116.922C118.916 131.501 120.312 129.52 119.631 127.642L115.071 115.056C114.152 112.524 110.571 112.524 109.652 115.056Z" fill="#312F31"/>
<path d="M43.9072 25.4942C43.9072 25.4942 44.3224 25.5215 45.0848 25.5895C44.724 25.5011 44.336 25.4602 43.9072 25.4942Z" fill="#312F31"/>
<path d="M129.916 82.0439L28.98 97.3521C41.8241 73.4199 55.9683 24.6231 43.907 25.4943C43.907 25.4943 104.84 29.0201 129.916 82.0439Z" fill="#D7586C"/>
<path opacity="0.2" d="M70.494 31.2663C58.2556 27.1211 48.3724 25.9027 45.0848 25.5896C46.4461 25.9299 47.3582 27.0939 47.8959 28.918C47.998 29.2652 48.0865 29.6396 48.1614 30.0343C48.1614 30.0411 48.1614 30.0548 48.1614 30.0616C48.1954 30.2453 48.2294 30.4427 48.2567 30.6401C48.2567 30.6674 48.2635 30.7014 48.2703 30.7286C48.2975 30.9056 48.3179 31.0894 48.3383 31.28C48.3383 31.314 48.3451 31.3548 48.3519 31.3957C48.3724 31.5795 48.386 31.7632 48.4064 31.9538C48.4064 31.9947 48.4064 32.0355 48.4132 32.0763C48.4268 32.2669 48.4404 32.4575 48.4472 32.6549C48.4472 32.6957 48.4472 32.7434 48.4472 32.7842C48.454 32.9816 48.4609 33.1858 48.4677 33.39C48.4677 33.4309 48.4677 33.4785 48.4677 33.5193C48.4677 33.7304 48.4677 33.9414 48.4677 34.1592C48.4677 34.2 48.4677 34.2409 48.4677 34.2885C48.4677 34.5131 48.4677 34.7377 48.454 34.9624C48.454 35.0032 48.454 35.0372 48.454 35.0781C48.454 35.3163 48.4404 35.5545 48.4268 35.7996C48.4268 35.8336 48.4268 35.8608 48.4268 35.8949C48.4132 36.1467 48.3996 36.4054 48.386 36.664C48.386 36.6844 48.386 36.7117 48.386 36.7321C48.3656 37.0044 48.3451 37.2834 48.3247 37.5625C48.3247 37.5761 48.3247 37.5897 48.3247 37.6033C47.0247 53.1497 38.0535 80.0564 29.4907 96.3992C30.0965 96.6374 30.7023 96.8416 31.3217 97.005L41.0144 95.5347C43.247 93.9828 45.3502 91.4167 47.188 87.4757C53.3072 74.3729 54.2669 57.9484 53.8789 45.7441C61.938 44.798 68.4928 38.9579 70.5008 31.2732L70.494 31.2663Z" fill="#312F31"/>
<path d="M52.2995 40.1694C61.7351 40.1694 69.3842 32.5203 69.3842 23.0847C69.3842 13.6491 61.7351 6 52.2995 6C42.8639 6 35.2148 13.6491 35.2148 23.0847C35.2148 32.5203 42.8639 40.1694 52.2995 40.1694Z" fill="#00A994"/>
<path d="M135.709 86.6451L135.573 56.6346C135.559 52.8705 130.876 51.1416 128.419 53.9868L108.006 77.6127L81.8409 52.4757C79.9419 50.6515 76.8449 51.0804 75.5108 53.3402L56.8946 84.8822L28.3815 67.1781C25.4683 65.3675 21.7586 67.7498 22.1943 71.1532C23.3378 80.1856 25.1075 94.0235 25.9652 100.333C26.2442 102.409 27.8778 104.036 29.9538 104.322C38.115 105.445 59.8827 107.446 89.2262 102.416C116.099 97.8148 128.31 93.1454 133.095 90.8584C134.708 90.0825 135.729 88.4352 135.722 86.6451H135.709Z" fill="#00A994"/>
<path d="M109.652 115.056L105.092 127.642C104.411 129.52 105.8 131.501 107.801 131.501H116.922C118.916 131.501 120.312 129.52 119.631 127.642L115.071 115.056C114.152 112.524 110.571 112.524 109.652 115.056Z" fill="#312F31"/>
</svg>
