<svg width="168" height="168" viewBox="0 0 168 168" fill="none" xmlns="http://www.w3.org/2000/svg">
<path d="M138.292 113.933C139.824 113.252 141.144 112.429 142.267 111.544C143.806 110.339 146.031 111.707 145.664 113.627C142.111 132.039 125.918 145.945 106.471 145.945C106.206 145.945 105.94 145.931 105.675 145.924L102.51 135.673L113.04 124.579C120.057 114.838 131.295 117.044 138.292 113.933Z" fill="#D4D4D4"/>
<path d="M101.482 98.7949C94.9204 116.799 77.652 129.656 57.3818 129.656C56.2314 129.656 55.0879 129.615 53.958 129.534C57.6132 147.816 73.7518 161.6 93.1099 161.6C114.136 161.6 131.356 145.346 132.915 124.715C118.927 121.291 107.404 111.612 101.482 98.8017V98.7949Z" fill="#DEDEDE"/>
<path d="M82.9813 57.1927C53.951 57.1927 30.4136 80.7301 30.4136 109.761C30.4136 114.021 30.9241 118.167 31.8838 122.135C39.2214 126.893 47.9747 129.656 57.3747 129.656C77.6449 129.656 94.9134 116.799 101.475 98.795C107.458 111.741 119.165 121.495 133.351 124.824C134.773 120.052 135.542 114.995 135.542 109.761C135.542 80.7301 112.005 57.1927 82.9745 57.1927H82.9813Z" fill="#B7B7B7"/>
<path d="M31.2781 116.669C29.7466 115.989 28.4262 115.165 27.3031 114.28C25.7648 113.075 23.539 114.444 23.9065 116.363C27.4596 134.775 43.6526 148.681 63.0992 148.681C63.3647 148.681 63.6302 148.667 63.8956 148.661L67.0607 138.41L56.5308 127.315C49.5132 117.575 38.2754 119.78 31.2781 116.669Z" fill="#DEDEDE"/>
<path d="M120.792 73.2429C94.8113 83.9634 65.7401 88.8573 35.7976 86.5635C32.442 93.3838 29.624 101.028 30.4817 112.49C54.019 114.689 77.4884 114.035 97.6497 106.82C98.5686 105.05 100.788 100.68 101.482 98.7883C102.162 100.265 104.089 103.567 104.919 104.955C115.803 102.437 124.128 99.183 133.487 95.1263C130.975 87.639 126.156 78.7903 120.792 73.2361V73.2429Z" fill="#A6A6A6"/>
<path d="M84.0501 114.593L79.0608 127.594C78.3393 129.479 79.7279 131.508 81.7495 131.508H91.728C93.7496 131.508 95.1381 129.479 94.4166 127.594L89.4274 114.593C88.4813 112.129 84.9963 112.129 84.0501 114.593Z" fill="#303030"/>
<path d="M109.493 115.056L104.933 127.642C104.252 129.52 105.641 131.501 107.642 131.501H116.763C118.757 131.501 120.153 129.52 119.472 127.642L114.911 115.056C113.992 112.524 110.412 112.524 109.493 115.056Z" fill="#303030"/>
<path d="M43.748 25.4942C43.748 25.4942 44.1633 25.5215 44.9256 25.5895C44.5649 25.5011 44.1769 25.4602 43.748 25.4942Z" fill="#312F31"/>
<path d="M129.757 82.0439L28.8281 97.3521C41.6655 73.4267 55.8097 24.623 43.7483 25.4943C43.7483 25.4943 104.681 29.0201 129.757 82.0439Z" fill="#A3A3A3"/>
<path d="M70.3348 31.2663C58.0964 27.1211 48.2132 25.9027 44.9256 25.5896C46.2869 25.9299 47.199 27.0939 47.7367 28.918C47.8388 29.2652 47.9273 29.6396 48.0022 30.0343C48.0022 30.0411 48.0022 30.0548 48.0022 30.0616C48.0362 30.2453 48.0703 30.4427 48.0975 30.6401C48.0975 30.6674 48.1043 30.7014 48.1111 30.7286C48.1383 30.9056 48.1587 31.0894 48.1792 31.28C48.1792 31.314 48.186 31.3548 48.1928 31.3957C48.2132 31.5795 48.2268 31.7632 48.2472 31.9538C48.2472 31.9947 48.2472 32.0355 48.254 32.0763C48.2676 32.2669 48.2813 32.4575 48.2881 32.6549C48.2881 32.6957 48.2881 32.7434 48.2881 32.7842C48.2949 32.9816 48.3017 33.1858 48.3085 33.39C48.3085 33.4309 48.3085 33.4785 48.3085 33.5193C48.3085 33.7304 48.3085 33.9414 48.3085 34.1592C48.3085 34.2 48.3085 34.2409 48.3085 34.2885C48.3085 34.5131 48.3085 34.7377 48.2949 34.9624C48.2949 35.0032 48.2949 35.0372 48.2949 35.0781C48.2949 35.3163 48.2813 35.5545 48.2676 35.7996C48.2676 35.8336 48.2676 35.8608 48.2676 35.8949C48.254 36.1467 48.2404 36.4054 48.2268 36.664C48.2268 36.6844 48.2268 36.7117 48.2268 36.7321C48.2064 37.0044 48.1859 37.2834 48.1655 37.5625C48.1655 37.5761 48.1655 37.5897 48.1655 37.6033C46.8655 53.1497 37.8943 80.0564 29.3315 96.3992C29.9373 96.6374 30.5431 96.8416 31.1625 97.005L40.8552 95.5347C43.0878 93.9828 45.191 91.4167 47.0288 87.4757C53.148 74.3729 54.1078 57.9484 53.7198 45.7441C61.7789 44.798 68.3336 38.9579 70.3416 31.2732L70.3348 31.2663Z" fill="#969696"/>
<path d="M52.1403 40.1694C61.576 40.1694 69.225 32.5203 69.225 23.0847C69.225 13.6491 61.576 6 52.1403 6C42.7047 6 35.0557 13.6491 35.0557 23.0847C35.0557 32.5203 42.7047 40.1694 52.1403 40.1694Z" fill="#6E6E6E"/>
<path d="M135.55 86.6451L135.413 56.6346C135.4 52.8705 130.717 51.1416 128.26 53.9868L107.847 77.6127L81.6818 52.4757C79.7827 50.6515 76.6857 51.0804 75.3516 53.3402L56.7354 84.8822L28.2223 67.1781C25.3091 65.3675 21.5995 67.7498 22.0351 71.1532C23.1786 80.1856 24.9483 94.0235 25.806 100.333C26.085 102.409 27.7187 104.036 29.7947 104.322C37.9559 105.445 59.7235 107.446 89.067 102.416C115.94 97.8148 128.151 93.1454 132.936 90.8584C134.549 90.0825 135.57 88.4352 135.563 86.6451H135.55Z" fill="#6E6E6E"/>
</svg>
