<svg width="168" height="168" viewBox="0 0 168 168" fill="none" xmlns="http://www.w3.org/2000/svg">
<path d="M139.971 116.951C141.645 117.06 143.191 116.938 144.6 116.679C146.519 116.325 147.86 118.571 146.642 120.096C134.954 134.764 114.16 139.577 96.9326 130.565C96.6943 130.442 96.4697 130.306 96.2383 130.177L98.185 119.626L112.663 114.678C123.397 109.307 132.327 116.468 139.971 116.951Z" fill="#E6C5AB"/>
<path d="M100.439 92.1614C93.8769 110.165 76.6085 123.023 56.3383 123.023C55.188 123.023 54.0445 122.982 52.9146 122.9C56.5697 141.183 72.7083 154.966 92.0664 154.966C113.092 154.966 130.313 138.712 131.872 118.081C117.884 114.657 106.36 104.978 100.439 92.1682V92.1614Z" fill="#ECD3BF"/>
<path d="M81.938 50.5591C52.9076 50.5591 34.271 74.0965 34.271 103.127C34.271 107.388 34.7815 111.533 35.7412 115.501C36.6465 119.34 38.6409 124.05 40.785 125.024C46.6795 127.692 49.443 123.023 56.3382 123.023C76.6084 123.023 93.8768 110.165 100.438 92.1613C106.421 105.108 118.129 114.862 132.314 118.19C133.737 113.418 134.506 108.361 134.506 103.127C134.506 74.0965 110.968 50.5591 81.938 50.5591Z" fill="#FF9C81"/>
<path d="M29.9761 122.138C28.3425 122.505 26.7905 122.635 25.3611 122.594C23.4076 122.546 22.4343 124.976 23.8773 126.29C37.7152 138.944 59.0064 140.441 74.614 128.836C74.8319 128.679 75.0293 128.509 75.2403 128.346C75.2403 128.346 67.1744 131.497 64.7308 125.303C62.2872 119.109 54.9633 116.134 54.9633 116.134C43.5213 112.507 37.4429 120.463 29.9761 122.145V122.138Z" fill="#ECD3BF"/>
<path d="M96.8441 124.684L80.9438 124.704C78.8678 124.704 78.0918 121.981 79.8615 120.892L92.59 113.044C93.6722 112.377 95.1016 112.84 95.5781 114.024L98.75 121.859C99.3013 123.213 98.3007 124.69 96.8441 124.69V124.684Z" fill="#312F31"/>
<path d="M108.79 124.684L122.553 124.704C124.459 124.704 125.344 122.342 123.907 121.09L114.984 113.337C114.031 112.506 112.561 112.724 111.887 113.8L107.047 121.532C106.19 122.9 107.177 124.684 108.79 124.684Z" fill="#312F31"/>
<path d="M42.7046 18.8606C42.7046 18.8606 43.1198 18.8878 43.8821 18.9559C43.5214 18.8674 43.1334 18.8265 42.7046 18.8606Z" fill="#312F31"/>
<path d="M120.736 67.671L69.5632 88.5811L30.3433 102.984C30.1664 106.687 34.7881 106.537 35.0399 109.872C34.6043 111.69 35.4892 114.331 35.4892 114.331C46.9516 112.438 71.4419 107.476 97.1574 99.1245C98.2192 97.0485 99.8596 93.7405 100.438 92.1613C100.962 93.2981 102.228 95.517 103.161 97.1098C112.765 93.7813 122.376 89.9288 131.347 85.4976C128.856 79.2287 125.01 72.4697 120.742 67.671H120.736Z" fill="#E37B62"/>
<path d="M124.009 66.2894L32.9501 104.835C39.2666 79.3037 40.8526 30.1121 29.7441 33.8149C29.7441 33.8149 87.7776 22.5295 124.009 66.2894Z" fill="#D7586C"/>
<path opacity="0.2" d="M56.0795 32.8686C43.6029 31.9089 34.0328 33.1341 30.8677 33.6242C32.2222 33.6174 33.3657 34.4886 34.305 36.0746C34.482 36.3741 34.659 36.7076 34.8223 37.0547C34.8223 37.0615 34.8292 37.0752 34.836 37.082C34.9108 37.2521 34.9925 37.4223 35.0674 37.5993C35.081 37.6265 35.0878 37.6537 35.1014 37.6809C35.1695 37.8443 35.2376 38.0077 35.2988 38.1778C35.3124 38.2119 35.326 38.2459 35.3396 38.2799C35.4009 38.4501 35.4622 38.6135 35.5234 38.7904C35.537 38.8313 35.5506 38.8653 35.5643 38.9061C35.6255 39.0831 35.68 39.2601 35.7344 39.4439C35.748 39.4847 35.7617 39.5255 35.7685 39.5664C35.8229 39.7502 35.8774 39.9408 35.9318 40.1313C35.9454 40.1722 35.9522 40.213 35.9658 40.2539C36.0203 40.4512 36.0748 40.6486 36.1224 40.8528C36.1292 40.8937 36.1428 40.9345 36.1496 40.9686C36.2041 41.1796 36.2517 41.3906 36.2994 41.6016C36.3062 41.6356 36.313 41.6764 36.3266 41.7105C36.3742 41.9351 36.4287 42.1597 36.4763 42.3911C36.4763 42.4252 36.49 42.4524 36.4968 42.4864C36.5444 42.7247 36.5921 42.9697 36.6397 43.2216C36.6397 43.242 36.6465 43.2692 36.6533 43.2896C36.701 43.5483 36.7486 43.8137 36.7963 44.086C36.7963 44.0996 36.7963 44.1132 36.7963 44.12C39.3011 59.0198 37.3272 86.4234 33.2092 103.808C33.8354 103.882 34.4548 103.93 35.0674 103.944L43.8139 100.241C45.536 98.2465 46.8973 95.3333 47.6801 91.2016C50.2871 77.4386 47.2513 61.7969 43.9637 50.4366C51.3012 47.6187 56.0523 40.567 56.0931 32.8754L56.0795 32.8686Z" fill="#312F31"/>
<path d="M37.0416 46.0939C46.1802 46.0939 53.5886 38.6856 53.5886 29.547C53.5886 20.4083 46.1802 13 37.0416 13C27.903 13 20.4946 20.4083 20.4946 29.547C20.4946 38.6856 27.903 46.0939 37.0416 46.0939Z" fill="#00A994"/>
<path d="M130.551 69.2161L123.234 41.0774C122.315 37.5516 117.51 37.0479 115.883 40.3083L102.378 67.3715L71.7961 50.0486C69.584 48.7962 66.7728 49.9329 66.0649 52.3765L56.1477 86.437L25.1434 76.649C21.9783 75.6484 19.065 78.7727 20.2834 81.8629C23.5234 90.0649 28.499 102.63 30.8065 108.348C31.5688 110.226 33.4883 111.363 35.5031 111.138C43.4328 110.24 64.3428 106.898 90.6778 95.1563C114.801 84.4018 125.14 77.0914 129.081 73.797C130.415 72.6807 130.973 70.8974 130.538 69.2161H130.551Z" fill="#00A994"/>
</svg>
