<?xml version="1.0" encoding="UTF-8"?>
<svg id="Layer_2" data-name="Layer 2" xmlns="http://www.w3.org/2000/svg" viewBox="0 0 490.76 452.25">
  <defs>
    <style>
      .cls-1 {
        fill: #a82929;
      }

      .cls-2 {
        fill: #d1352e;
      }

      .cls-3 {
        fill: #a3bc6c;
      }

      .cls-4 {
        fill: #bc2b2b;
      }

      .cls-5 {
        fill: #aecf74;
      }

      .cls-6 {
        fill: #ef8860;
      }

      .cls-7 {
        fill: #95a862;
      }

      .cls-8 {
        fill: #f6a37b;
      }

      .cls-9 {
        fill: #f29570;
      }
    </style>
  </defs>
  <g id="simple_christmas_hats_illustration_set" data-name="simple christmas hats illustration set">
    <g>
      <g>
        <path class="cls-2" d="M78.12,293.68h335.8s33.13-81.49-24.18-130.74c0,0,0-13.43,8.06-11.64,8.06,1.79,17.01,26.86,34.92,20.6,17.91-6.27-8.06-157.6-135.21-164.77C170.36-.03,61.11,118.17,78.12,293.68Z"/>
        <path class="cls-4" d="M413.92,293.68s33.13-81.49-24.18-130.74c0,0,0-13.43,8.06-11.64,8.06,1.79,17.01,26.86,34.92,20.6.08-.03.16-.08.24-.12-7.46-12.44-21.46-32.58-35.99-36.66,0,0-6.52-28-22.26-16.67-15.74,11.33,2.93,26.53,2.93,26.53,0,0-25.33-9.19-28,12.14s36,10,47.33,58.67c6.48,27.82-6.86,57.54-19.49,77.9h36.43Z"/>
        <g>
          <path class="cls-4" d="M396.09,73.58c-3.7-7.39-7.72-5-7.72-5,0,0-5.07,1.05-.74,9.69,4.33,8.64,7.75,4.32,7.75,4.32,0,0,4.41-1.63.71-9.01Z"/>
          <path class="cls-4" d="M384.71,88.28s-5.07,1.05-.74,9.69c4.33,8.64,7.75,4.32,7.75,4.32,0,0,4.4-1.63.71-9.01-3.7-7.39-7.72-5-7.72-5Z"/>
          <path class="cls-4" d="M402.54,86.09s-5.07,1.05-.74,9.69c4.33,8.64,7.75,4.32,7.75,4.32,0,0,4.41-1.63.71-9.01-3.7-7.39-7.72-5-7.72-5Z"/>
        </g>
        <path class="cls-1" d="M238.98,6.82c-58,15.71-122.67,60.29-148.67,146.29s-13.47,86.86-13.47,86.86c-.07-37.76,17.47-130.86,93.14-193.34S330.09,12.55,330.09,12.55c3.78-5.9-33.12-21.44-91.12-5.73Z"/>
      </g>
      <g>
        <path class="cls-5" d="M411.24,287.41s-8.06-84.17-61.79-90.44c-53.73-6.27-65.37,38.5-65.37,38.5,0,0-3.58-93.13-77.01-90.44-73.43,2.69-94.02,109.25-94.02,109.25,0,0-68.71,24.37-42.86,80.69h363.99s19.15-41.29-22.94-47.56Z"/>
        <path class="cls-3" d="M411.24,287.41s-8.06-84.17-61.79-90.44c-53.73-6.27-65.37,38.5-65.37,38.5,0,0-3.58-93.13-77.01-90.44-73.43,2.69-94.02,109.25-94.02,109.25,0,0-68.71,24.37-42.86,80.69h5.25c-1.3-11.46-1.96-36.35,13.54-51.85,20.67-20.67,30-2,35.33-8s10-70,23.33-82,13.33,10.67,24.67,3.33c11.33-7.33,16-47.33,43.33-40.67s48,92.59,67.33,92.29c19.33-.29,48.67-42.29,67.33-37.63,18.67,4.67,18,42,28.67,42.67s9.33-12,13.33-9.33,0,60.67,11.33,64c9.97,2.93,21.48,2.78,23.65,27.19h6.87s19.15-41.29-22.94-47.56Z"/>
        <g>
          <g>
            <path class="cls-3" d="M220.16,167.41c-3.7-7.39-7.72-5-7.72-5,0,0-5.07,1.05-.74,9.69,4.33,8.64,7.75,4.32,7.75,4.32,0,0,4.41-1.63.71-9.01Z"/>
            <path class="cls-3" d="M208.78,182.11s-5.07,1.05-.74,9.69c4.33,8.64,7.75,4.32,7.75,4.32,0,0,4.4-1.63.71-9.01-3.7-7.39-7.72-5-7.72-5Z"/>
            <path class="cls-3" d="M226.61,179.92s-5.07,1.05-.74,9.69c4.33,8.64,7.75,4.32,7.75,4.32,0,0,4.41-1.63.71-9.01-3.7-7.39-7.72-5-7.72-5Z"/>
          </g>
          <g>
            <path class="cls-3" d="M396.28,328.76c8.19,1.03,8.44-3.64,8.44-3.64,0,0,1.95-4.8-7.65-6-9.59-1.2-7.9,4.05-7.9,4.05,0,0-1.1,4.57,7.1,5.59Z"/>
            <path class="cls-3" d="M390.38,311.14s1.95-4.8-7.65-6c-9.59-1.2-7.9,4.05-7.9,4.05,0,0-1.09,4.57,7.1,5.59,8.19,1.03,8.44-3.64,8.44-3.64Z"/>
            <path class="cls-3" d="M382.29,327.18s1.95-4.8-7.65-6c-9.59-1.2-7.9,4.05-7.9,4.05,0,0-1.09,4.57,7.1,5.59,8.2,1.03,8.44-3.64,8.44-3.64Z"/>
          </g>
        </g>
        <g>
          <path class="cls-7" d="M201.31,142.45c-41,2-65,41-77,68.5s-12,40.5-14,40.5-34,10-42.5,34-6.22,57.48,2.39,53.5c0,0-27.41-59.84,42.85-84.67,0,0,22.28-111.16,94.02-109.25,71.74,1.92,77.01,90.44,77.01,90.44,0,0,6.23,1.97-3.77-35.03s-38-60-79-58Z"/>
          <path class="cls-7" d="M438.52,304.96c-4.71-27.01-35.56-24.01-33.63-17.51,0,0,43.65-3.46,29.29,47.52,0,0,9.06-2.99,4.35-30.01Z"/>
        </g>
      </g>
      <g>
        <path class="cls-8" d="M89.23,367.8s-5.75-19.6-25.9-17.98c0,0-35.02-29.37-46.35-24.37-11.33,5-22.41,45.29-11.37,72.31h0c-.13,1.94-.21,3.96-.21,6.06,0,72.53,82.06,42.09,82.06,42.09,13.11-54.62,1.76-78.11,1.76-78.11Z"/>
        <path class="cls-9" d="M66.4,414.2l-25.75-23.25s-18.75,15.44-6.75,30.84c12,15.41,33.5,3.91,32.5-7.59Z"/>
        <path class="cls-6" d="M37.4,379.2c-7.5,7.5,5.5,21.83,5.5,21.83,0,0-12.25,8.92-6,16.67s18.25-6,18.25-6c0,0,18.5,19.75,23.5,4,0,0-33.75-44-41.25-36.5Z"/>
        <g>
          <path class="cls-9" d="M38.04,369.15c3.76-3.31,1.74-5.31,1.74-5.31,0,0-1.4-2.81-5.8,1.07-4.41,3.88-1.34,5.22-1.34,5.22,0,0,1.64,2.34,5.4-.98Z"/>
          <path class="cls-9" d="M27.64,364.75s-1.4-2.81-5.8,1.07c-4.41,3.88-1.34,5.22-1.34,5.22,0,0,1.64,2.33,5.4-.98,3.76-3.31,1.74-5.31,1.74-5.31Z"/>
          <path class="cls-9" d="M31.69,374.88s-1.4-2.81-5.8,1.07c-4.41,3.88-1.34,5.22-1.34,5.22,0,0,1.64,2.33,5.4-.98,3.76-3.31,1.74-5.31,1.74-5.31Z"/>
        </g>
        <path class="cls-6" d="M15.48,324.24c-16.5,9.55-16.75,46.95-14.43,62.2,2.32,15.25,4.56,11.31,4.56,11.31-11.37-34.69,1.37-69.06,10.87-72.88,9.5-3.82,28.18,11.05,28.18,11.05,3.93-.77-12.68-21.23-29.18-11.68Z"/>
      </g>
      <g>
        <path class="cls-8" d="M401.53,367.8s5.75-19.6,25.9-17.98c0,0,35.02-29.37,46.35-24.37s22.41,45.29,11.37,72.31h0c.13,1.94.21,3.96.21,6.06,0,72.53-82.06,42.09-82.06,42.09-13.11-54.62-1.76-78.11-1.76-78.11Z"/>
        <path class="cls-9" d="M424.36,414.2l25.75-23.25s18.75,15.44,6.75,30.84c-12,15.41-33.5,3.91-32.5-7.59Z"/>
        <path class="cls-6" d="M453.36,379.2c7.5,7.5-5.5,21.83-5.5,21.83,0,0,12.25,8.92,6,16.67s-18.25-6-18.25-6c0,0-18.5,19.75-23.5,4,0,0,33.75-44,41.25-36.5Z"/>
        <g>
          <path class="cls-9" d="M452.72,369.15c-3.76-3.31-1.74-5.31-1.74-5.31,0,0,1.4-2.81,5.8,1.07,4.41,3.88,1.34,5.22,1.34,5.22,0,0-1.64,2.34-5.4-.98Z"/>
          <path class="cls-9" d="M463.12,364.75s1.4-2.81,5.8,1.07c4.41,3.88,1.34,5.22,1.34,5.22,0,0-1.64,2.33-5.4-.98-3.76-3.31-1.74-5.31-1.74-5.31Z"/>
          <path class="cls-9" d="M459.07,374.88s1.4-2.81,5.8,1.07c4.41,3.88,1.34,5.22,1.34,5.22,0,0-1.64,2.33-5.4-.98-3.76-3.31-1.74-5.31-1.74-5.31Z"/>
        </g>
        <path class="cls-6" d="M475.28,324.24c16.5,9.55,16.75,46.95,14.43,62.2-2.32,15.25-4.56,11.31-4.56,11.31,11.37-34.69-1.37-69.06-10.87-72.88-9.5-3.82-28.18,11.05-28.18,11.05-3.93-.77,12.68-21.23,29.18-11.68Z"/>
      </g>
    </g>
  </g>
</svg>