<svg width="48" height="48" viewBox="0 0 48 48" fill="none" xmlns="http://www.w3.org/2000/svg">
<g clip-path="url(#clip0_2_566)">
<path d="M39.0644 32.703C39.4917 32.5131 39.8601 32.2833 40.1734 32.0364C40.6026 31.7003 41.2236 32.082 41.121 32.6175C40.1298 37.7544 35.612 41.6341 30.1864 41.6341C30.1124 41.6341 30.0383 41.6303 29.9642 41.6284L29.0812 38.7685L32.019 35.6731C33.9769 32.9555 37.1122 33.5708 39.0644 32.703Z" fill="#E6C5AB"/>
<path d="M28.7945 28.4795C26.9638 33.5025 22.1459 37.0897 16.4906 37.0897C16.1697 37.0897 15.8506 37.0783 15.5354 37.0556C16.5552 42.1564 21.0578 46.0019 26.4586 46.0019C32.3248 46.0019 37.1293 41.467 37.5642 35.711C33.6617 34.7558 30.4466 32.0554 28.7945 28.4814V28.4795Z" fill="#ECD3BF"/>
<path d="M23.6329 16.8726C15.5335 16.8726 8.96667 23.4395 8.96667 31.5389C8.96667 32.7277 9.1091 33.8842 9.37687 34.9913C11.424 36.3187 13.8662 37.0897 16.4887 37.0897C22.1441 37.0897 26.9619 33.5025 28.7926 28.4795C30.4618 32.0915 33.7282 34.8128 37.6858 35.7414C38.0827 34.4102 38.2972 32.9992 38.2972 31.5389C38.2972 23.4395 31.7304 16.8726 23.631 16.8726H23.6329Z" fill="#FF9C81"/>
<path d="M9.2078 33.4664C8.78051 33.2765 8.4121 33.0467 8.09876 32.7998C7.66958 32.4637 7.0486 32.8454 7.15114 33.3809C8.14244 38.5178 12.6602 42.3975 18.0858 42.3975C18.1598 42.3975 18.2339 42.3937 18.308 42.3918L19.191 39.5319L16.2532 36.4365C14.2953 33.719 11.16 34.3342 9.2078 33.4664Z" fill="#ECD3BF"/>
<path d="M34.182 21.3505C26.9334 24.3415 18.8226 25.7069 10.4688 25.067C9.53256 26.9698 8.74636 29.1024 8.98564 32.3004C15.5525 32.9138 22.1004 32.7315 27.7253 30.7185C27.9817 30.2247 28.6008 29.0056 28.7945 28.4776C28.9844 28.8897 29.5218 29.8107 29.7535 30.1981C32.79 29.4955 35.1125 28.5878 37.7237 27.4559C37.023 25.367 35.6784 22.8983 34.182 21.3486V21.3505Z" fill="#E37B62"/>
<path d="M23.9311 32.8872L22.5391 36.5143C22.3378 37.0404 22.7252 37.6063 23.2892 37.6063H26.0732C26.6372 37.6063 27.0246 37.0404 26.8233 36.5143L25.4314 32.8872C25.1674 32.1997 24.1951 32.1997 23.9311 32.8872Z" fill="#312F31"/>
<path d="M31.0296 33.0163L29.7572 36.5276C29.5673 37.0518 29.9547 37.6044 30.513 37.6044H33.0577C33.6141 37.6044 34.0035 37.0518 33.8135 36.5276L32.5412 33.0163C32.2848 32.3099 31.2859 32.3099 31.0296 33.0163Z" fill="#312F31"/>
<path d="M12.6869 8.02883C12.6869 8.02883 12.8027 8.03643 13.0154 8.05542C12.9148 8.03073 12.8065 8.01933 12.6869 8.02883Z" fill="#312F31"/>
<path d="M36.683 23.806L8.52222 28.0769C12.1057 21.3999 16.0519 7.78574 12.6868 8.02882C12.6868 8.02882 29.6869 9.01252 36.683 23.806Z" fill="#D7586C"/>
<path opacity="0.2" d="M20.1044 9.63921C16.69 8.4827 13.9326 8.14278 13.0154 8.05542C13.3952 8.15037 13.6496 8.47511 13.7997 8.98405C13.8281 9.0809 13.8528 9.18534 13.8737 9.29549C13.8737 9.29739 13.8737 9.30119 13.8737 9.30308C13.8832 9.35436 13.8927 9.40943 13.9003 9.4645C13.9003 9.4721 13.9022 9.48159 13.9041 9.48919C13.9117 9.53857 13.9174 9.58984 13.9231 9.64301C13.9231 9.65251 13.925 9.6639 13.9269 9.6753C13.9326 9.72657 13.9364 9.77784 13.9421 9.83102C13.9421 9.84241 13.9421 9.8538 13.944 9.8652C13.9478 9.91837 13.9516 9.97154 13.9535 10.0266C13.9535 10.038 13.9535 10.0513 13.9535 10.0627C13.9554 10.1178 13.9573 10.1747 13.9592 10.2317C13.9592 10.2431 13.9592 10.2564 13.9592 10.2678C13.9592 10.3267 13.9592 10.3855 13.9592 10.4463C13.9592 10.4577 13.9592 10.4691 13.9592 10.4824C13.9592 10.5451 13.9592 10.6077 13.9554 10.6704C13.9554 10.6818 13.9554 10.6913 13.9554 10.7027C13.9554 10.7691 13.9516 10.8356 13.9478 10.904C13.9478 10.9135 13.9478 10.9211 13.9478 10.9306C13.944 11.0008 13.9402 11.073 13.9364 11.1451C13.9364 11.1508 13.9364 11.1584 13.9364 11.1641C13.9307 11.2401 13.925 11.318 13.9193 11.3958C13.9193 11.3996 13.9193 11.4034 13.9193 11.4072C13.5566 15.7446 11.0537 23.2515 8.66467 27.8111C8.83369 27.8775 9.0027 27.9345 9.17551 27.9801L11.8797 27.5699C12.5026 27.1369 13.0894 26.421 13.6022 25.3214C15.3094 21.6658 15.5772 17.0834 15.4689 13.6785C17.7174 13.4145 19.5461 11.7851 20.1063 9.64111L20.1044 9.63921Z" fill="#312F31"/>
<path d="M15.0284 12.1231C17.6609 12.1231 19.795 9.98908 19.795 7.35657C19.795 4.72406 17.6609 2.59 15.0284 2.59C12.3959 2.59 10.2618 4.72406 10.2618 7.35657C10.2618 9.98908 12.3959 12.1231 15.0284 12.1231Z" fill="#00A994"/>
<path d="M38.299 25.0898L38.261 16.7169C38.2572 15.6667 36.9507 15.1844 36.2651 15.9782L30.5699 22.5697L23.27 15.5566C22.7402 15.0477 21.8761 15.1673 21.5039 15.7978L16.3101 24.5979L8.35503 19.6585C7.54224 19.1534 6.50727 19.818 6.62881 20.7676C6.94785 23.2876 7.44159 27.1483 7.68087 28.9087C7.75873 29.4879 8.2145 29.9418 8.79371 30.0215C11.0706 30.3349 17.1438 30.8932 25.3305 29.4898C32.8279 28.2061 36.2347 26.9033 37.5698 26.2653C38.0198 26.0488 38.3047 25.5892 38.3028 25.0898H38.299Z" fill="#00A994"/>
</g>
<defs>
<clipPath id="clip0_2_566">
<rect width="34.5149" height="43.41" fill="white" transform="translate(6.61755 2.59)"/>
</clipPath>
</defs>
</svg>
