<svg width="48" height="48" viewBox="0 0 48 48" fill="none" xmlns="http://www.w3.org/2000/svg">
<g clip-path="url(#clip0_2_542)">
<path d="M36.4229 26.8438C36.4229 26.8438 35.9721 24.3714 34.4667 23.3878L36.6511 23.7899C36.0194 22.066 34.9579 20.4563 34.6699 20.2838H16.2518C16.1822 20.3325 13.5276 20.8612 12.0083 23.5853C11.9179 23.7467 12.0542 23.9429 12.2365 23.9179C12.5217 23.8775 12.8834 23.8344 13.1074 23.8274C12.128 25.3718 11.6243 26.8438 11.6243 26.8438C9.17979 27.6396 7.47544 31.1791 8.52449 35.0664C8.63718 35.4838 9.18953 35.5645 9.41492 35.1944C9.72936 34.6768 10.1565 34.1273 10.5947 34.0048C10.5947 34.0048 10.9899 39.4977 15.7175 42.9036C16.0041 43.1109 16.4118 42.9495 16.48 42.6017C16.6525 41.721 17.273 41.504 17.273 41.504C19.1471 44.7276 23.2194 45.6779 24.0125 45.8351V45.8407C24.0125 45.8407 24.0208 45.8393 24.025 45.8379C24.0292 45.8379 24.0347 45.8393 24.0375 45.8407V45.8351C24.8306 45.6779 28.9043 44.729 30.777 41.504C30.777 41.504 31.3975 41.721 31.5701 42.6017C31.6382 42.9481 32.0459 43.1095 32.3325 42.9022C37.0601 39.4963 37.4553 34.0034 37.4553 34.0034C37.8935 34.1245 38.3193 34.6754 38.6351 35.1916C38.8605 35.5603 39.4128 35.481 39.5255 35.0636C40.5746 31.1763 38.8688 27.6368 36.4257 26.841L36.4229 26.8438Z" fill="#1C6961"/>
<path d="M37.1742 7.25285C37.1742 7.25285 37.0727 7.24033 36.8862 7.22224C36.9781 7.21668 37.0741 7.22642 37.1742 7.25285Z" fill="#312F31"/>
<path d="M13.8142 16.9294L37.4608 25.2786C35.4671 18.9134 34.3053 6.48623 37.1742 7.25284C37.1742 7.25284 22.3095 5.29249 13.8142 16.9307V16.9294Z" fill="#D7586C"/>
<g opacity="0.2">
<path d="M14.3541 16.2212L16.3312 17.6765C18.2553 13.9241 25.1228 9.70571 30.1454 8.17667C30.6449 9.49563 31.7969 10.5321 33.2842 10.8174C34.0508 10.9635 34.8091 10.8911 35.4936 10.6435C35.6188 8.62467 36.046 7.26676 36.8849 7.22085C34.83 7.02606 22.208 6.28032 14.3541 16.2212Z" fill="#312F31"/>
<path d="M36.8849 7.22224C37.0727 7.24033 37.1729 7.25285 37.1729 7.25285C37.0713 7.22642 36.9753 7.21668 36.8849 7.22224Z" fill="#312F31"/>
</g>
<path d="M23.353 34.1398C23.8442 33.7906 29.2494 29.1506 31.7704 26.9816C32.2115 26.6018 32.8849 26.976 32.7972 27.5506L32.121 32.0042C32.0807 32.2658 31.8817 32.4744 31.623 32.5245L23.3586 34.151C23.3503 34.1524 23.3461 34.1426 23.3517 34.1384L23.353 34.1398Z" fill="#D8E6DA"/>
<path d="M24.4424 34.1398C23.9513 33.7906 18.5461 29.1506 16.025 26.9815C15.584 26.6017 14.9106 26.976 14.9983 27.5506L15.6744 32.0042C15.7148 32.2657 15.9137 32.4744 16.1725 32.5245L24.4369 34.1509C24.4452 34.1523 24.4494 34.1426 24.4438 34.1384L24.4424 34.1398Z" fill="#D8E6DA"/>
<path d="M25.0768 36.1836H22.6587C22.1523 36.1836 21.8226 35.6508 22.0494 35.1972L23.2584 32.7791C23.5102 32.2768 24.2267 32.2768 24.4772 32.7791L25.6862 35.1972C25.913 35.6508 25.5833 36.1836 25.0768 36.1836Z" fill="#7CC3B7"/>
<mask id="mask0_2_542" style="mask-type:luminance" maskUnits="userSpaceOnUse" x="14" y="26" width="19" height="9">
<path d="M31.7705 26.9815C29.6348 28.8181 25.4331 32.4271 23.8971 33.7015C22.3611 32.4271 18.1593 28.8181 16.0237 26.9815C15.5826 26.6017 14.9093 26.976 14.9969 27.5506L15.6731 32.0042C15.7134 32.2657 15.9124 32.4744 16.1712 32.5245L23.5576 33.9784C23.463 34.0549 23.3906 34.1106 23.3531 34.1384C23.3461 34.1426 23.3517 34.1523 23.36 34.1509L23.8985 34.0452L24.4369 34.1509C24.4453 34.1523 24.4494 34.1426 24.4439 34.1384C24.4049 34.1106 24.334 34.0549 24.2393 33.9784L31.6258 32.5245C31.8846 32.473 32.0849 32.2657 32.1239 32.0042L32.8 27.5506C32.8877 26.976 32.2129 26.6017 31.7733 26.9815H31.7705Z" fill="white"/>
</mask>
<g mask="url(#mask0_2_542)">
<path d="M30.2483 28.6205H25.5846C25.3926 28.6205 25.266 28.8236 25.3523 28.9961L27.6841 33.6598C27.7801 33.8504 28.0528 33.8504 28.1474 33.6598L30.4793 28.9961C30.5655 28.8236 30.4403 28.6205 30.2469 28.6205H30.2483Z" fill="#D7586C"/>
<path d="M21.9938 28.6205H17.3301C17.1381 28.6205 17.0115 28.8236 17.0978 28.9962L19.4296 33.6598C19.5256 33.8504 19.7983 33.8504 19.8929 33.6598L22.2247 28.9962C22.311 28.8236 22.1858 28.6205 21.9924 28.6205H21.9938Z" fill="#D7586C"/>
</g>
<path d="M14.2067 27.0553L23.0915 33.0629L17.5625 24.3353C17.3844 24.0709 17.0213 24.0083 16.7667 24.1989L14.1719 26.1384C13.8602 26.3722 13.8769 26.8452 14.2067 27.0553Z" fill="#312F31"/>
<path d="M13.0087 20.5467C20.2366 23.3641 27.6912 25.568 35.2877 27.136C36.9921 27.488 38.6004 26.4542 38.8717 24.8723C39.143 23.289 38.0467 21.7711 36.4328 21.4372C29.1743 19.9401 22.0508 17.8337 15.1458 15.1415C13.6098 14.5433 11.8651 15.2222 11.2321 16.697C10.599 18.1718 11.3879 19.9151 13.0087 20.5453V20.5467Z" fill="#C6DBC9"/>
<path d="M33.5165 27.0553L24.6316 33.0629L30.1606 24.3353C30.3387 24.0709 30.7019 24.0083 30.9565 24.1989L33.5512 26.1384C33.8629 26.3722 33.8462 26.8452 33.5165 27.0553Z" fill="#312F31"/>
<path d="M35.2598 10.482C37.5781 10.482 39.4574 8.60273 39.4574 6.28448C39.4574 3.96623 37.5781 2.08691 35.2598 2.08691C32.9416 2.08691 31.0623 3.96623 31.0623 6.28448C31.0623 8.60273 32.9416 10.482 35.2598 10.482Z" fill="#C6DBC9"/>
</g>
<defs>
<clipPath id="clip0_2_542">
<rect width="31.6299" height="43.7565" fill="white" transform="translate(8.20874 2.08694)"/>
</clipPath>
</defs>
</svg>
