<svg width="168" height="168" viewBox="0 0 168 168" fill="none" xmlns="http://www.w3.org/2000/svg">
<g clip-path="url(#clip0_8_127)">
<path d="M129.328 94.526C129.328 94.526 127.679 85.4856 122.175 81.8888L130.162 83.3591C127.852 77.0557 123.971 71.1695 122.918 70.5387H55.57C55.3156 70.7168 45.6088 72.65 40.0533 82.6112C39.7226 83.2013 40.2212 83.9187 40.8876 83.8271C41.9306 83.6796 43.2533 83.5218 44.0724 83.4964C40.4908 89.1435 38.6492 94.526 38.6492 94.526C29.7105 97.436 23.4784 110.378 27.3143 124.593C27.7264 126.119 29.7461 126.414 30.5703 125.061C31.7201 123.168 33.2819 121.159 34.8845 120.711C34.8845 120.711 36.3293 140.796 53.6164 153.25C54.6644 154.008 56.155 153.418 56.4043 152.146C57.0352 148.926 59.3042 148.132 59.3042 148.132C66.157 159.92 81.0479 163.395 83.9477 163.97V163.99C83.9477 163.99 83.9783 163.985 83.9935 163.98C84.0088 163.98 84.0291 163.985 84.0393 163.99V163.97C86.9391 163.395 101.835 159.925 108.683 148.132C108.683 148.132 110.952 148.926 111.583 152.146C111.832 153.413 113.323 154.003 114.371 153.245C131.658 140.791 133.103 120.706 133.103 120.706C134.705 121.149 136.262 123.163 137.417 125.051C138.241 126.399 140.261 126.109 140.673 124.583C144.509 110.368 138.271 97.4258 129.338 94.5158L129.328 94.526Z" fill="#1C6961"/>
<path d="M132.075 22.8897C132.075 22.8897 131.704 22.8439 131.022 22.7777C131.358 22.7574 131.709 22.793 132.075 22.8897Z" fill="#312F31"/>
<path d="M46.6567 58.2728L133.123 88.8025C125.833 65.5275 121.585 20.0864 132.075 22.8896C132.075 22.8896 77.7207 15.7214 46.6567 58.2779V58.2728Z" fill="#D7586C"/>
<g opacity="0.2">
<path d="M48.6304 55.6833L55.8596 61.0047C62.8956 47.2839 88.0072 31.8588 106.373 26.2677C108.199 31.0906 112.412 34.8807 117.85 35.9237C120.653 36.4578 123.426 36.1933 125.929 35.2877C126.387 27.9058 127.949 22.9405 131.016 22.7726C123.502 22.0604 77.349 19.3335 48.6304 55.6833Z" fill="#312F31"/>
<path d="M131.017 22.7777C131.703 22.8439 132.07 22.8897 132.07 22.8897C131.698 22.793 131.347 22.7574 131.017 22.7777Z" fill="#312F31"/>
</g>
<path d="M81.5363 121.204C83.3322 119.928 103.097 102.961 112.315 95.0296C113.928 93.6407 116.39 95.0093 116.07 97.1104L113.597 113.395C113.45 114.352 112.722 115.115 111.776 115.298L81.5567 121.245C81.5262 121.25 81.5109 121.215 81.5312 121.199L81.5363 121.204Z" fill="#D8E6DA"/>
<path d="M85.5195 121.204C83.7236 119.928 63.9589 102.961 54.7405 95.0296C53.1278 93.6407 50.6654 95.0093 50.9859 97.1104L53.4584 113.395C53.606 114.352 54.3335 115.115 55.2797 115.298L85.4991 121.245C85.5297 121.25 85.5449 121.215 85.5246 121.199L85.5195 121.204Z" fill="#D8E6DA"/>
<path d="M87.8398 128.678H78.9978C77.146 128.678 75.9403 126.729 76.7695 125.071L81.1905 116.229C82.1114 114.392 84.7314 114.392 85.6471 116.229L90.0681 125.071C90.8974 126.729 89.6916 128.678 87.8398 128.678Z" fill="#7CC3B7"/>
<mask id="mask0_8_127" style="mask-type:luminance" maskUnits="userSpaceOnUse" x="50" y="94" width="67" height="28">
<path d="M112.315 95.0296C104.506 101.745 89.142 114.942 83.5254 119.602C77.9089 114.942 62.5448 101.745 54.7356 95.0296C53.1229 93.6407 50.6605 95.0093 50.9811 97.1104L53.4536 113.395C53.6011 114.352 54.3286 115.115 55.2749 115.298L82.2841 120.614C81.9381 120.894 81.6736 121.098 81.5362 121.199C81.5108 121.215 81.5311 121.25 81.5617 121.245L83.5305 120.859L85.4993 121.245C85.5299 121.25 85.5451 121.215 85.5248 121.199C85.3823 121.098 85.1229 120.894 84.7769 120.614L111.786 115.298C112.732 115.11 113.465 114.352 113.607 113.395L116.08 97.1104C116.4 95.0093 113.933 93.6407 112.325 95.0296H112.315Z" fill="white"/>
</mask>
<g mask="url(#mask0_8_127)">
<path d="M106.75 101.023H89.6966C88.9945 101.023 88.5316 101.765 88.847 102.396L97.3735 119.449C97.7246 120.146 98.7217 120.146 99.0677 119.449L107.594 102.396C107.91 101.765 107.452 101.023 106.745 101.023H106.75Z" fill="#D7586C"/>
<path d="M76.5661 101.023H59.513C58.8109 101.023 58.348 101.765 58.6634 102.396L67.19 119.449C67.541 120.146 68.5381 120.146 68.8841 119.449L77.4106 102.396C77.726 101.765 77.2682 101.023 76.561 101.023H76.5661Z" fill="#D7586C"/>
</g>
<path d="M48.0915 95.2992L80.5799 117.267L60.3624 85.3533C59.7112 84.3867 58.3834 84.1577 57.4524 84.8547L47.9643 91.9466C46.8247 92.8013 46.8857 94.531 48.0915 95.2992Z" fill="#312F31"/>
<path d="M43.7112 71.5002C70.1405 81.8023 97.399 89.8608 125.176 95.5943C131.409 96.8815 137.29 93.1015 138.282 87.3171C139.274 81.5276 135.265 75.9772 129.363 74.7562C102.822 69.2821 76.7745 61.5797 51.5255 51.7355C45.909 49.5479 39.5293 52.0306 37.2145 57.4233C34.8998 62.816 37.7843 69.1905 43.7112 71.4951V71.5002Z" fill="#C6DBC9"/>
<path d="M118.7 95.2992L86.2114 117.267L106.429 85.3533C107.08 84.3867 108.408 84.1577 109.339 84.8547L118.827 91.9466C119.967 92.8013 119.906 94.531 118.7 95.2992Z" fill="#312F31"/>
<path d="M125.074 34.6976C133.551 34.6976 140.423 27.8257 140.423 19.3488C140.423 10.8719 133.551 4 125.074 4C116.597 4 109.726 10.8719 109.726 19.3488C109.726 27.8257 116.597 34.6976 125.074 34.6976Z" fill="#C6DBC9"/>
</g>
<defs>
<clipPath id="clip0_8_127">
<rect width="115.658" height="160" fill="white" transform="translate(26.1592 4)"/>
</clipPath>
</defs>
</svg>
