<?xml version="1.0" encoding="UTF-8"?>
<svg id="Layer_2" data-name="Layer 2" xmlns="http://www.w3.org/2000/svg" viewBox="0 0 490.76 479.37">
  <defs>
    <style>
      .cls-1 {
        fill: #ffee85;
      }

      .cls-2 {
        fill: #a3bc6c;
      }

      .cls-3 {
        fill: #aecf74;
      }

      .cls-4 {
        fill: #f4d864;
      }

      .cls-5 {
        fill: #ef8860;
      }

      .cls-6 {
        fill: #95a862;
      }

      .cls-7 {
        fill: #f6a37b;
      }

      .cls-8 {
        fill: #f9e373;
      }

      .cls-9 {
        fill: #f29570;
      }
    </style>
  </defs>
  <g id="simple_christmas_hats_illustration_set" data-name="simple christmas hats illustration set">
    <g>
      <g>
        <path class="cls-3" d="M415.87,311.31S315.91.75,254.41,2.32c-61.5,1.57-182.21,305.93-182.21,305.93,0,0-40.33,9-17.32,43.88,0,0,60.04-20.54,178.53-20.9,118.49-.36,177.09,37.51,192.04,27.57,14.95-9.93,11.11-46.29-9.57-47.5Z"/>
        <path class="cls-2" d="M415.87,311.31S315.91.75,254.41,2.32c-2.15.05-4.38.49-6.67,1.26,19.33,30.27,75.46,120.76,91.37,175.11,19.33,66,45.72,136.67,57.86,143.33,12.14,6.67,14.81,10.67,11.48,20-3.33,9.33-80.67-25.33-178.67-21.33-64.9,2.65-96.46,9.37-107.67,17.68,28.27-3.83,65.39-7,111.3-7.14,118.49-.36,177.09,37.51,192.04,27.57,14.95-9.93,11.11-46.29-9.57-47.5Z"/>
        <g>
          <g>
            <path class="cls-2" d="M282.02,75.98c-2.9-7.73-7.15-5.78-7.15-5.78,0,0-5.15.51-1.75,9.56,3.4,9.05,7.26,5.11,7.26,5.11,0,0,4.55-1.15,1.65-8.89Z"/>
            <path class="cls-2" d="M269.16,89.4s-5.15.51-1.75,9.56c3.4,9.05,7.26,5.11,7.26,5.11,0,0,4.55-1.15,1.65-8.89-2.9-7.73-7.15-5.78-7.15-5.78Z"/>
            <path class="cls-2" d="M287.12,89.1s-5.15.51-1.75,9.56c3.4,9.05,7.26,5.11,7.26,5.11,0,0,4.55-1.15,1.65-8.89-2.9-7.73-7.15-5.78-7.15-5.78Z"/>
          </g>
          <g>
            <path class="cls-2" d="M133.42,325.16c8.19-1.07,7.25-5.65,7.25-5.65,0,0,.67-5.13-8.91-3.88-9.59,1.25-6.62,5.91-6.62,5.91,0,0,.09,4.7,8.28,3.62Z"/>
            <path class="cls-2" d="M123.26,309.59s.68-5.13-8.91-3.88c-9.59,1.25-6.62,5.91-6.62,5.91,0,0,.09,4.69,8.28,3.62,8.19-1.07,7.25-5.65,7.25-5.65Z"/>
            <path class="cls-2" d="M119.48,327.15s.68-5.13-8.91-3.88c-9.58,1.25-6.62,5.91-6.62,5.91,0,0,.09,4.7,8.28,3.62,8.19-1.07,7.25-5.65,7.25-5.65Z"/>
          </g>
        </g>
        <g>
          <path class="cls-6" d="M255.78,2.32c32.5-.12,87.41,119.69,87.41,119.69,0,0,6.59,1.69-20.41-47.31S271.48-9.56,245.38,2.32c-26.1,11.88-73.6,73.2-66.6,81.79,0,0,44.5-81.67,77-81.79Z"/>
          <path class="cls-6" d="M418.78,360.46s-88-25.77-170.51-29.07c-82.52-3.3-166.85,13.95-166.85,13.95,1.14,6.14,88.88-11.96,139.86-12.38,50.98-.42,124.74,10.48,162.5,22.23,37.76,11.75,35,5.27,35,5.27Z"/>
        </g>
      </g>
      <g>
        <path class="cls-1" d="M248.63,113.28c-41.19,0-72.83,8.33-96.22,18.62-24.65,47.44-47.21,97.94-62.07,132.69,27.49-5.81,74.39-11.82,150.8-11.82,82.6,0,131.88,7.03,159.28,13.22-12.45-35.21-31.32-85.9-52.47-133.45-24.41-10.59-57.25-19.27-99.31-19.27Z"/>
        <path class="cls-8" d="M369.03,260.33c12.69,1.82,23.06,3.78,31.39,5.66-12.45-35.21-31.32-85.9-52.47-133.45-10.07-4.37-21.6-8.4-34.59-11.64,13.4,31.9,39.56,95.02,55.68,139.43Z"/>
        <g>
          <path class="cls-8" d="M342.52,212.27c-.79-8.22-5.41-7.44-5.41-7.44,0,0-5.1-.85-4.18,8.77.93,9.62,5.68,6.82,5.68,6.82,0,0,4.7.07,3.9-8.15Z"/>
          <path class="cls-8" d="M326.61,221.89s-5.11-.85-4.18,8.77c.93,9.62,5.68,6.82,5.68,6.82,0,0,4.69.07,3.9-8.15s-5.4-7.44-5.4-7.44Z"/>
          <path class="cls-8" d="M344.03,226.27s-5.1-.85-4.18,8.77c.93,9.62,5.68,6.82,5.68,6.82,0,0,4.7.07,3.9-8.15-.79-8.22-5.41-7.44-5.41-7.44Z"/>
        </g>
        <g>
          <path class="cls-4" d="M193.28,237.87c-36.5-1.33-73.77,12.83-73.77,12.83.73,6.5,27.34-7.88,62.93-8.46,35.59-.58,62.84,7.46,62.93,4.46.1-3-15.6-7.5-52.1-8.83Z"/>
          <path class="cls-4" d="M389.28,226.25c-22-61.05-36.51-95.7-39.76-90.13,0,0,47.19,115.56,56.72,146.57,0,0,5.03,4.61-16.97-56.44Z"/>
        </g>
      </g>
      <g>
        <path class="cls-7" d="M89.23,394.92s-5.75-19.6-25.9-17.98c0,0-35.02-29.37-46.35-24.37s-22.41,45.29-11.37,72.31h0c-.13,1.94-.21,3.96-.21,6.06,0,72.53,82.06,42.09,82.06,42.09,13.11-54.62,1.76-78.11,1.76-78.11Z"/>
        <path class="cls-9" d="M66.4,441.32l-25.75-23.25s-18.75,15.44-6.75,30.84c12,15.41,33.5,3.91,32.5-7.59Z"/>
        <path class="cls-5" d="M37.4,406.32c-7.5,7.5,5.5,21.83,5.5,21.83,0,0-12.25,8.92-6,16.67s18.25-6,18.25-6c0,0,18.5,19.75,23.5,4,0,0-33.75-44-41.25-36.5Z"/>
        <g>
          <path class="cls-9" d="M38.04,396.28c3.76-3.31,1.74-5.31,1.74-5.31,0,0-1.4-2.81-5.8,1.06-4.41,3.88-1.34,5.22-1.34,5.22,0,0,1.64,2.33,5.4-.98Z"/>
          <path class="cls-9" d="M27.64,391.87s-1.4-2.81-5.8,1.07c-4.41,3.88-1.34,5.22-1.34,5.22,0,0,1.64,2.33,5.4-.98,3.76-3.31,1.74-5.31,1.74-5.31Z"/>
          <path class="cls-9" d="M31.69,402s-1.4-2.81-5.8,1.07c-4.41,3.88-1.34,5.22-1.34,5.22,0,0,1.64,2.33,5.4-.98,3.76-3.31,1.74-5.31,1.74-5.31Z"/>
        </g>
        <path class="cls-5" d="M15.48,351.37c-16.5,9.55-16.75,46.95-14.43,62.2s4.56,11.31,4.56,11.31c-11.37-34.69,1.37-69.06,10.87-72.88,9.5-3.82,28.18,11.05,28.18,11.05,3.93-.77-12.68-21.23-29.18-11.68Z"/>
      </g>
      <g>
        <path class="cls-7" d="M401.53,394.92s5.75-19.6,25.9-17.98c0,0,35.02-29.37,46.35-24.37s22.41,45.29,11.37,72.31h0c.13,1.94.21,3.96.21,6.06,0,72.53-82.06,42.09-82.06,42.09-13.11-54.62-1.76-78.11-1.76-78.11Z"/>
        <path class="cls-9" d="M424.36,441.32l25.75-23.25s18.75,15.44,6.75,30.84c-12,15.41-33.5,3.91-32.5-7.59Z"/>
        <path class="cls-5" d="M453.36,406.32c7.5,7.5-5.5,21.83-5.5,21.83,0,0,12.25,8.92,6,16.67s-18.25-6-18.25-6c0,0-18.5,19.75-23.5,4,0,0,33.75-44,41.25-36.5Z"/>
        <g>
          <path class="cls-9" d="M452.72,396.28c-3.76-3.31-1.74-5.31-1.74-5.31,0,0,1.4-2.81,5.8,1.06,4.41,3.88,1.34,5.22,1.34,5.22,0,0-1.64,2.33-5.4-.98Z"/>
          <path class="cls-9" d="M463.12,391.87s1.4-2.81,5.8,1.07c4.41,3.88,1.34,5.22,1.34,5.22,0,0-1.64,2.33-5.4-.98-3.76-3.31-1.74-5.31-1.74-5.31Z"/>
          <path class="cls-9" d="M459.07,402s1.4-2.81,5.8,1.07c4.41,3.88,1.34,5.22,1.34,5.22,0,0-1.64,2.33-5.4-.98-3.76-3.31-1.74-5.31-1.74-5.31Z"/>
        </g>
        <path class="cls-5" d="M475.28,351.37c16.5,9.55,16.75,46.95,14.43,62.2-2.32,15.25-4.56,11.31-4.56,11.31,11.37-34.69-1.37-69.06-10.87-72.88-9.5-3.82-28.18,11.05-28.18,11.05-3.93-.77,12.68-21.23,29.18-11.68Z"/>
      </g>
    </g>
  </g>
</svg>